<?xml version="1.0" encoding="utf-8"?>
<!-- Generator: Adobe Illustrator 19.0.0, SVG Export Plug-In . SVG Version: 6.00 Build 0)  -->
<svg version="1.1" id="Layer_1" xmlns="http://www.w3.org/2000/svg" xmlns:xlink="http://www.w3.org/1999/xlink" x="0px" y="0px"
	 width="193.1px" height="137.4px" viewBox="0 0 193.1 137.4" enable-background="new 0 0 193.1 137.4" xml:space="preserve">
	<path fill="#FFFFFF" d="M170.7,46.8c-4-3.1-7.7-6.1-11.3-9c-4.3-3.4-8.6-6.8-13.1-9.9c-1.1-0.8-5.6-0.5-6.6,0.4
		c-1.3,1.2-0.9,4.4,0.7,6c1.2,1.1,2.6,1.8,4.1,2.6c12.3,6.1,19.8,24.1,15.4,37c-3.5,10.3-14.5,16.8-24.7,14.7
		c-3.3-0.7-6.8-2.6-8.6-4.9c2.5-0.4,4.8-1.2,7.3-0.4c5,1.5,9.6,0.4,13.3-3.2c4.8-4.7,8.2-10.1,8.1-17.2c0-2.5-0.6-4.9-2.1-6.8
		c-5.4-6.9-11.2-13.5-19.4-17C104.9,26.9,78,29.4,53.8,50.4c-1,0.9-2,1.8-3,2.8c-0.9,0.9-1.7,2-2,3.3c-0.3,1.2-0.5,2.6,0.5,3.3
		c0.7,0.6,1.7-0.4,2.5-0.7c1.9-0.7,3.4-1.9,4.9-3.3C68.6,44,83,38.8,99.6,39.7c6.1,0.3,11.9,1.7,17.8,2.9c1.1,0.2,1.6,0.6,1.2,1.7
		c0,0.1-0.1,0.2-0.1,0.4c-0.5,2.9-0.5,2.9-3.3,2.4c-7-1.1-13.9-2.4-21.1-2.1c-11,0.4-20.7,4.1-29.5,10.5c-3.2,2.3-4.9,5.5-6.6,8.8
		c-0.6,1.1-0.2,1.3,0.9,1.4c3.7,0.2,7.3-0.7,10.7-2c4.5-1.7,8.8-3.8,13.6-4.5c7.3-1.1,14.2,0.3,21.1,2.4c6.4,1.9,12.6,4.5,19.3,5.6
		c3.8,0.6,7.4,0.3,10.8-1.7c2.7-1.6,3.3-3.8,1.6-6.4c-0.5-0.8-1.2-1.6-1.9-2.3c-1.4-1.5-2.6-3.1-3.3-5.2c-0.3-1-0.1-1.3,0.9-1.3
		c6-0.2,11.7,5.8,11,11.8c-0.7,6.1-4.5,9.7-10.7,10.5c-8,1.1-15.6-0.4-22.8-3.7c-7-3.1-14.2-4.9-21.9-4.4
		c-7.7,0.5-14.9,2.7-21.8,5.9c-2.8,1.3-5.8,2.3-8.9,2.7c-3,0.5-5-0.7-5.9-3.5c-0.4-1.2-0.6-2.5-0.8-3.8c-0.3-1.9-1.9-3.7-3.8-4
		c-0.6-0.1-0.9,0.2-1.2,0.6c-2.4,3.9-5,7.7-6.6,12.1c-0.8,2.2-0.3,3.9,1.4,5.3c2.5,2.1,5.4,3.2,8.8,2.6c5.3-1,10.4-2.4,15.2-4.8
		c14.1-6.7,28.5-7.3,43.4-3.2c1,0.3,1.9,0.5,2.9,0.8c2.9,0.9,4.7,2.8,5.8,5.9c-2.5,0.1-4.7,0-7-0.6c-8.2-2.3-16.6-3.7-25.2-2.7
		c-5.3,0.6-10.3,2.1-15.1,4.4c-6.7,3.2-13.7,5.6-21,6.7c-7.6,1.1-14.4-3.7-15.7-11c-0.5-3,0.2-5.8,1.5-8.5c9.5-19.3,24-33,44.9-39.2
		c15.9-4.7,31.8-4.5,47.8-0.4c2,0.5,4,1,6,0.9c1,0,1.8-0.2,2.7-0.7c2.6-1.4,2.7-2.3,0.8-4.4c-1.7-1.8-3.6-2.8-6.1-3.3
		c-17.4-3.4-34.7-3.9-51.9,1.5C64,28,52.1,35.5,41.7,45.4c-4.2,4-7.7,8.6-12,12.5c-1,0.8-1.4,0.8-2.2-0.1C25,55,25,55.1,27.7,52.4
		c8.4-8.2,16.9-16.3,25.1-24.7c0.8-0.8-0.1-1.9,0.9-2.5c0.2-0.1-0.4-0.5-0.8-0.6c-1.4-0.3-2.8-0.1-4.2,0.5c-1.8,0.8-3.3,2-4.7,3.3
		c-9.6,8.1-19,16.2-26.1,26.7c-4.5,6.6-7.8,13.7-9.7,21.4C7,81.8,7.9,86.6,10.9,91.1c3.9,5.8,8.6,10.7,14.2,14.9
		c7.6,5.6,15.8,6.2,24.3,2.5c5.7-2.5,11.2-5.3,17-7.6c8.8-3.5,17.8-5,27.1-2.7c2.7,0.7,5.3,1.7,7.8,2.9c5.5,2.7,10.9,5.4,16.4,7.9
		c1.6,0.7,1.6,1.3,0.8,2.7c-1.8,3.1-3.4,6.3-5,9.5c-1.8,3.5-1.3,5.1,2.3,6.5c8.5,3.2,17.4,4.5,26.5,3.7c6.1-0.5,12-2,17.7-4.1
		c2.8-1,5.3-1.2,8.8-0.5c-1.2,1.9-2.8,3.2-4.6,4.3c-5.6,3.5-11.9,5-18.3,5.7c-12.2,1.3-24.2,0.5-35.8-3.8c-2.4-0.9-4.6-2.1-6.8-3.5
		c-1.1-0.7-1.4-1.3-0.8-2.7c1.4-3.2,3-6.3,4.6-9.3c1.7-3.1,1.4-3.9-1.5-6c-6.3-4.6-13.1-7.8-21-8.1c-6.4-0.2-12.2,1.6-18.1,3.8
		c-7,2.7-13.9,5.8-21.1,8c-13.2,3.9-24.2,0.7-33-10c-1.3-1.5-2.7-3-4.1-4.3c-8.3-8-10.5-17.6-7.1-28.5c3-9.5,8-18,13.6-26.2
		c9.9-14.5,22.5-26.2,38.5-33.7c14-6.5,28.7-10.3,44-11.8c21.4-2.1,42,1.4,61.9,9.5c11.1,4.5,19.2,12.1,24.5,22.8
		c5.2,10.5,8.6,21.6,9,33.4c0.6,16.4-6.1,29.5-18.9,39.6c-9.8,7.8-21,12.1-33.1,14.4c-2.9,0.6-5.9,0.9-8.8,1.4
		c-0.9,0.2-1.2-0.1-1.2-1c-0.1-4,1.9-6.8,5.9-7.7c4.2-0.9,8.6-1.3,12.8-2.6c16.3-5.1,26.8-16.1,33.1-31.7c1.5-3.6,1.6-7.5,2-11.3
		c1.1-14.2-2.9-26.7-11.7-37.8c-6.1-7.8-14.2-12.8-23.5-15.7c-25.4-7.9-51-8.8-76.7-1.4c-4.9,1.4-9.6,3.5-14.2,5.6
		c-2.6,1.2-3.2,2.9-2.2,5.1c0.4,0.7,0.8,1.1,1.7,1.2c2,0.2,3.7-0.2,5.6-1c14.7-6.6,30.1-10.1,46.3-9.5c14.1,0.5,27.5,3.9,40.3,9.7
		c5,2.2,8.8,6,12.7,9.7c1.5,1.5,2.9,3.1,4.6,4.4c1.6,1.3,2.3,3,2.5,5C170.2,43.8,170.5,45.1,170.7,46.8z"/>
	<path fill="#FFFFFF" d="M171.1,56.1c5.9,4.1,6.6,9.6,5.4,15.8c-3.5,18-20.2,31.4-38.6,31.3c-8.5-0.1-16.4-2.6-24.1-5.7
		c-4.9-1.9-9.8-3.8-14.9-5.4c-10-3.3-19.8-2.6-29.5,1.3c-6.4,2.6-12.7,5.6-19.4,7.6c-5,1.5-10,2.2-15.2,0.7
		c-9.1-2.6-17-12.1-17.8-21.6c-0.3-3.2,0.9-8.6,2.8-12.6c0.7,3,2.6,5.4,2.4,8.3c-1.1,13.7,13.4,24.8,28.2,19.5
		c6.8-2.4,13.5-5.1,20.1-7.9c9.7-4.1,19.4-4.2,29.3-0.9c9.2,3.1,18.3,6.7,27.7,9.4c16.7,4.8,34.4-3.7,40.7-19.5
		c1.8-4.6,2-9.5,2.5-14.3C170.7,60.2,170.9,58.2,171.1,56.1z"/>
</svg>
